<svg width="600" height="779" viewBox="0 0 600 779" fill="none" xmlns="http://www.w3.org/2000/svg">
<rect width="600" height="779" fill="url(#paint0_linear_7_59)"/>
<path d="M50 231C50 180.19 91.1898 139 142 139H550V549C550 598.706 509.706 639 460 639H50V231Z" fill="#35D1DD"/>
<path d="M262.442 318H245.932V275.091H262.274C266.688 275.091 270.501 275.95 273.714 277.668C276.94 279.372 279.426 281.83 281.172 285.043C282.932 288.242 283.812 292.076 283.812 296.545C283.812 301.015 282.939 304.856 281.193 308.069C279.447 311.268 276.975 313.726 273.776 315.444C270.578 317.148 266.8 318 262.442 318ZM257.581 308.111H262.023C264.146 308.111 265.954 307.769 267.449 307.084C268.958 306.4 270.103 305.219 270.885 303.543C271.681 301.867 272.079 299.535 272.079 296.545C272.079 293.556 271.674 291.224 270.864 289.548C270.068 287.871 268.895 286.691 267.344 286.007C265.808 285.322 263.922 284.98 261.687 284.98H257.581V308.111ZM300.851 275.091V318H289.202V275.091H300.851ZM329.503 288.5C329.391 287.103 328.867 286.014 327.931 285.232C327.009 284.449 325.606 284.058 323.72 284.058C322.519 284.058 321.534 284.205 320.766 284.498C320.012 284.778 319.453 285.162 319.09 285.651C318.727 286.139 318.538 286.698 318.524 287.327C318.496 287.844 318.587 288.311 318.796 288.73C319.02 289.136 319.369 289.506 319.844 289.841C320.319 290.162 320.927 290.455 321.667 290.721C322.407 290.986 323.287 291.224 324.307 291.433L327.827 292.188C330.201 292.69 332.233 293.354 333.924 294.178C335.614 295.002 336.996 295.973 338.072 297.09C339.148 298.194 339.937 299.437 340.44 300.82C340.956 302.202 341.222 303.711 341.236 305.345C341.222 308.167 340.516 310.555 339.12 312.511C337.723 314.466 335.725 315.954 333.127 316.973C330.543 317.993 327.436 318.503 323.804 318.503C320.074 318.503 316.82 317.951 314.04 316.848C311.275 315.744 309.124 314.047 307.587 311.756C306.065 309.452 305.297 306.504 305.283 302.915H316.345C316.415 304.228 316.743 305.331 317.33 306.225C317.916 307.119 318.741 307.797 319.802 308.257C320.878 308.718 322.156 308.949 323.636 308.949C324.879 308.949 325.92 308.795 326.758 308.488C327.596 308.181 328.232 307.755 328.665 307.21C329.098 306.665 329.321 306.044 329.335 305.345C329.321 304.689 329.105 304.116 328.686 303.627C328.281 303.124 327.61 302.677 326.674 302.286C325.738 301.881 324.474 301.504 322.882 301.155L318.608 300.233C314.809 299.409 311.813 298.033 309.62 296.105C307.441 294.164 306.358 291.517 306.372 288.165C306.358 285.441 307.084 283.06 308.551 281.02C310.032 278.967 312.078 277.368 314.69 276.222C317.316 275.077 320.326 274.504 323.72 274.504C327.184 274.504 330.18 275.084 332.708 276.243C335.237 277.403 337.185 279.037 338.554 281.146C339.937 283.241 340.635 285.692 340.649 288.5H329.503ZM344.494 284.477V275.091H381.788V284.477H368.881V318H357.4V284.477H344.494ZM386.172 318V275.091H404.693C407.878 275.091 410.664 275.671 413.053 276.83C415.441 277.989 417.299 279.658 418.626 281.837C419.953 284.016 420.616 286.628 420.616 289.673C420.616 292.746 419.932 295.337 418.563 297.446C417.208 299.556 415.302 301.148 412.843 302.223C410.399 303.299 407.543 303.837 404.274 303.837H393.212V294.786H401.928C403.296 294.786 404.463 294.618 405.426 294.283C406.404 293.933 407.152 293.382 407.668 292.627C408.199 291.873 408.464 290.888 408.464 289.673C408.464 288.444 408.199 287.445 407.668 286.677C407.152 285.895 406.404 285.322 405.426 284.959C404.463 284.582 403.296 284.393 401.928 284.393H397.821V318H386.172ZM411.314 298.305L422.041 318H409.386L398.911 298.305H411.314ZM437.231 275.091V318H425.582V275.091H437.231ZM442.752 318V275.091H461.357C464.626 275.091 467.37 275.531 469.591 276.411C471.826 277.291 473.509 278.534 474.64 280.14C475.786 281.747 476.358 283.639 476.358 285.818C476.358 287.397 476.009 288.835 475.311 290.134C474.626 291.433 473.663 292.523 472.42 293.403C471.176 294.269 469.724 294.869 468.062 295.205V295.624C469.905 295.693 471.582 296.161 473.09 297.027C474.599 297.879 475.8 299.06 476.694 300.568C477.588 302.063 478.035 303.823 478.035 305.848C478.035 308.195 477.42 310.283 476.191 312.113C474.976 313.942 473.244 315.381 470.995 316.429C468.746 317.476 466.064 318 462.949 318H442.752ZM454.401 308.697H459.849C461.804 308.697 463.271 308.334 464.248 307.608C465.226 306.868 465.715 305.778 465.715 304.339C465.715 303.334 465.485 302.482 465.024 301.783C464.563 301.085 463.906 300.554 463.054 300.191C462.216 299.828 461.203 299.646 460.016 299.646H454.401V308.697ZM454.401 292.439H459.178C460.198 292.439 461.099 292.278 461.881 291.957C462.663 291.636 463.271 291.175 463.704 290.574C464.151 289.96 464.374 289.212 464.374 288.332C464.374 287.005 463.899 285.993 462.949 285.294C462 284.582 460.798 284.226 459.346 284.226H454.401V292.439ZM488.615 318.67C486.995 318.67 485.605 318.105 484.446 316.973C483.3 315.828 482.735 314.438 482.749 312.804C482.735 311.212 483.3 309.85 484.446 308.718C485.605 307.587 486.995 307.021 488.615 307.021C490.152 307.021 491.507 307.587 492.68 308.718C493.867 309.85 494.468 311.212 494.482 312.804C494.468 313.893 494.181 314.885 493.623 315.779C493.078 316.659 492.366 317.364 491.486 317.895C490.606 318.412 489.649 318.67 488.615 318.67ZM265.299 355.477V346.091H302.593V355.477H289.687V389H278.205V355.477H265.299ZM318.626 346.091V389H306.977V346.091H318.626ZM322.974 355.477V346.091H360.268V355.477H347.361V389H335.88V355.477H322.974ZM364.652 389V346.091H383.173C386.358 346.091 389.144 346.671 391.533 347.83C393.921 348.989 395.779 350.658 397.106 352.837C398.433 355.016 399.096 357.628 399.096 360.673C399.096 363.746 398.412 366.337 397.043 368.446C395.688 370.556 393.782 372.148 391.323 373.223C388.879 374.299 386.023 374.837 382.754 374.837H371.692V365.786H380.408C381.776 365.786 382.943 365.618 383.906 365.283C384.884 364.933 385.631 364.382 386.148 363.627C386.679 362.873 386.944 361.888 386.944 360.673C386.944 359.444 386.679 358.445 386.148 357.677C385.631 356.895 384.884 356.322 383.906 355.959C382.943 355.582 381.776 355.393 380.408 355.393H376.301V389H364.652ZM389.794 369.305L400.521 389H387.866L377.39 369.305H389.794ZM404.062 389V346.091H434.987V355.477H415.711V362.852H433.394V372.239H415.711V379.614H434.903V389H404.062ZM463.895 359.5C463.783 358.103 463.259 357.014 462.323 356.232C461.402 355.449 459.998 355.058 458.112 355.058C456.911 355.058 455.926 355.205 455.158 355.498C454.404 355.778 453.845 356.162 453.482 356.651C453.119 357.139 452.93 357.698 452.916 358.327C452.888 358.844 452.979 359.311 453.189 359.73C453.412 360.136 453.761 360.506 454.236 360.841C454.711 361.162 455.319 361.455 456.059 361.721C456.799 361.986 457.679 362.224 458.699 362.433L462.219 363.188C464.593 363.69 466.626 364.354 468.316 365.178C470.006 366.002 471.389 366.973 472.464 368.09C473.54 369.194 474.329 370.437 474.832 371.82C475.348 373.202 475.614 374.711 475.628 376.345C475.614 379.167 474.908 381.555 473.512 383.511C472.115 385.466 470.117 386.954 467.519 387.973C464.935 388.993 461.828 389.503 458.196 389.503C454.467 389.503 451.212 388.951 448.432 387.848C445.667 386.744 443.516 385.047 441.979 382.756C440.457 380.452 439.689 377.504 439.675 373.915H450.737C450.807 375.228 451.135 376.331 451.722 377.225C452.309 378.119 453.133 378.797 454.194 379.257C455.27 379.718 456.548 379.949 458.028 379.949C459.271 379.949 460.312 379.795 461.15 379.488C461.988 379.181 462.624 378.755 463.057 378.21C463.49 377.665 463.713 377.044 463.727 376.345C463.713 375.689 463.497 375.116 463.078 374.627C462.673 374.124 462.002 373.677 461.066 373.286C460.131 372.881 458.866 372.504 457.274 372.155L453 371.233C449.201 370.409 446.205 369.033 444.012 367.105C441.833 365.164 440.75 362.517 440.764 359.165C440.75 356.441 441.477 354.06 442.943 352.02C444.424 349.967 446.47 348.368 449.082 347.222C451.708 346.077 454.718 345.504 458.112 345.504C461.576 345.504 464.572 346.084 467.1 347.243C469.629 348.403 471.577 350.037 472.946 352.146C474.329 354.241 475.027 356.692 475.041 359.5H463.895Z" fill="#174B6F"/>
<path d="M335.675 198.5C335.525 196.63 334.824 195.171 333.571 194.124C332.336 193.076 330.457 192.553 327.932 192.553C326.323 192.553 325.005 192.749 323.976 193.142C322.966 193.516 322.218 194.03 321.732 194.685C321.246 195.339 320.993 196.087 320.974 196.929C320.937 197.621 321.059 198.248 321.339 198.809C321.638 199.351 322.106 199.847 322.742 200.295C323.378 200.726 324.191 201.118 325.183 201.474C326.174 201.829 327.352 202.147 328.717 202.428L333.43 203.438C336.61 204.111 339.331 204.999 341.594 206.103C343.857 207.206 345.709 208.506 347.149 210.002C348.589 211.48 349.646 213.144 350.319 214.996C351.011 216.847 351.366 218.867 351.385 221.055C351.366 224.833 350.422 228.031 348.551 230.65C346.681 233.268 344.007 235.26 340.528 236.625C337.068 237.991 332.907 238.673 328.044 238.673C323.05 238.673 318.693 237.935 314.971 236.457C311.268 234.98 308.388 232.707 306.33 229.64C304.292 226.554 303.263 222.608 303.244 217.801H318.057C318.15 219.559 318.59 221.037 319.375 222.234C320.161 223.431 321.264 224.338 322.686 224.955C324.126 225.572 325.837 225.881 327.82 225.881C329.484 225.881 330.877 225.675 332 225.263C333.122 224.852 333.973 224.282 334.553 223.552C335.132 222.823 335.432 221.991 335.45 221.055C335.432 220.176 335.142 219.41 334.581 218.755C334.038 218.082 333.141 217.483 331.887 216.96C330.634 216.417 328.942 215.912 326.81 215.445L321.087 214.21C316 213.107 311.988 211.265 309.051 208.684C306.134 206.084 304.684 202.54 304.703 198.051C304.684 194.404 305.657 191.215 307.621 188.485C309.603 185.735 312.343 183.594 315.841 182.06C319.357 180.527 323.387 179.76 327.932 179.76C332.57 179.76 336.582 180.536 339.967 182.088C343.352 183.641 345.961 185.829 347.794 188.653C349.646 191.458 350.581 194.741 350.599 198.5H335.675ZM355.747 193.114V180.545H405.683V193.114H388.402V238H373.029V193.114H355.747ZM419.226 238H402.394L421.359 180.545H442.68L461.644 238H444.812L432.244 196.368H431.795L419.226 238ZM416.084 215.332H447.729V227.003H416.084V215.332ZM516.889 180.545V238H503.872L483.112 207.814H482.776V238H467.178V180.545H480.419L500.843 210.619H501.291V180.545H516.889Z" fill="white"/>
<rect width="341" height="127" transform="translate(157 421)" fill="#9A9A9A"/>
<rect x="234" y="446" width="67" height="76" fill="#3F3F3F"/>
<rect x="386" y="446" width="67" height="76" fill="#3F3F3F"/>
<rect width="143" height="209" transform="translate(76 231)" fill="#9A9A9A"/>
<rect x="93" y="253" width="108" height="168" fill="#3F3F3F"/>
<rect x="498" y="67" width="9" height="72" fill="#4DF08B"/>
<defs>
<linearGradient id="paint0_linear_7_59" x1="600" y1="389.5" x2="0" y2="389.5" gradientUnits="userSpaceOnUse">
<stop stop-color="#313131"/>
<stop offset="0.115385" stop-color="#555555"/>
<stop offset="0.841346" stop-color="#555555"/>
<stop offset="1" stop-color="#313131"/>
</linearGradient>
</defs>
</svg>
