<svg width="500" height="500" viewBox="0 0 500 500" fill="none" xmlns="http://www.w3.org/2000/svg">
<path d="M0 50C0 22.3858 22.3858 0 50 0H500V450C500 477.614 477.614 500 450 500H0V50Z" fill="#35D1DD"/>
<path d="M212.442 179H195.932V136.091H212.274C216.688 136.091 220.501 136.95 223.714 138.668C226.94 140.372 229.426 142.83 231.172 146.043C232.932 149.242 233.812 153.076 233.812 157.545C233.812 162.015 232.939 165.856 231.193 169.069C229.447 172.268 226.975 174.726 223.776 176.444C220.578 178.148 216.8 179 212.442 179ZM207.581 169.111H212.023C214.146 169.111 215.954 168.769 217.449 168.084C218.958 167.4 220.103 166.219 220.885 164.543C221.681 162.867 222.079 160.535 222.079 157.545C222.079 154.556 221.674 152.224 220.864 150.548C220.068 148.871 218.895 147.691 217.344 147.007C215.808 146.322 213.922 145.98 211.687 145.98H207.581V169.111ZM250.851 136.091V179H239.202V136.091H250.851ZM279.503 149.5C279.391 148.103 278.867 147.014 277.931 146.232C277.009 145.449 275.606 145.058 273.72 145.058C272.519 145.058 271.534 145.205 270.766 145.498C270.012 145.778 269.453 146.162 269.09 146.651C268.727 147.139 268.538 147.698 268.524 148.327C268.496 148.844 268.587 149.311 268.796 149.73C269.02 150.136 269.369 150.506 269.844 150.841C270.319 151.162 270.927 151.455 271.667 151.721C272.407 151.986 273.287 152.224 274.307 152.433L277.827 153.188C280.201 153.69 282.233 154.354 283.924 155.178C285.614 156.002 286.996 156.973 288.072 158.09C289.148 159.194 289.937 160.437 290.44 161.82C290.956 163.202 291.222 164.711 291.236 166.345C291.222 169.167 290.516 171.555 289.12 173.511C287.723 175.466 285.725 176.954 283.127 177.973C280.543 178.993 277.436 179.503 273.804 179.503C270.074 179.503 266.82 178.951 264.04 177.848C261.275 176.744 259.124 175.047 257.587 172.756C256.065 170.452 255.297 167.504 255.283 163.915H266.345C266.415 165.228 266.743 166.331 267.33 167.225C267.916 168.119 268.741 168.797 269.802 169.257C270.878 169.718 272.156 169.949 273.636 169.949C274.879 169.949 275.92 169.795 276.758 169.488C277.596 169.181 278.232 168.755 278.665 168.21C279.098 167.665 279.321 167.044 279.335 166.345C279.321 165.689 279.105 165.116 278.686 164.627C278.281 164.124 277.61 163.677 276.674 163.286C275.738 162.881 274.474 162.504 272.882 162.155L268.608 161.233C264.809 160.409 261.813 159.033 259.62 157.105C257.441 155.164 256.358 152.517 256.372 149.165C256.358 146.441 257.084 144.06 258.551 142.02C260.032 139.967 262.078 138.368 264.69 137.222C267.316 136.077 270.326 135.504 273.72 135.504C277.184 135.504 280.18 136.084 282.708 137.243C285.237 138.403 287.185 140.037 288.554 142.146C289.937 144.241 290.635 146.692 290.649 149.5H279.503ZM294.494 145.477V136.091H331.788V145.477H318.881V179H307.4V145.477H294.494ZM336.172 179V136.091H354.693C357.878 136.091 360.664 136.671 363.053 137.83C365.441 138.989 367.299 140.658 368.626 142.837C369.953 145.016 370.616 147.628 370.616 150.673C370.616 153.746 369.932 156.337 368.563 158.446C367.208 160.556 365.302 162.148 362.843 163.223C360.399 164.299 357.543 164.837 354.274 164.837H343.212V155.786H351.928C353.296 155.786 354.463 155.618 355.426 155.283C356.404 154.933 357.152 154.382 357.668 153.627C358.199 152.873 358.464 151.888 358.464 150.673C358.464 149.444 358.199 148.445 357.668 147.677C357.152 146.895 356.404 146.322 355.426 145.959C354.463 145.582 353.296 145.393 351.928 145.393H347.821V179H336.172ZM361.314 159.305L372.041 179H359.386L348.911 159.305H361.314ZM387.231 136.091V179H375.582V136.091H387.231ZM392.752 179V136.091H411.357C414.626 136.091 417.37 136.531 419.591 137.411C421.826 138.291 423.509 139.534 424.64 141.14C425.786 142.747 426.358 144.639 426.358 146.818C426.358 148.397 426.009 149.835 425.311 151.134C424.626 152.433 423.663 153.523 422.42 154.403C421.176 155.269 419.724 155.869 418.062 156.205V156.624C419.905 156.693 421.582 157.161 423.09 158.027C424.599 158.879 425.8 160.06 426.694 161.568C427.588 163.063 428.035 164.823 428.035 166.848C428.035 169.195 427.42 171.283 426.191 173.113C424.976 174.942 423.244 176.381 420.995 177.429C418.746 178.476 416.064 179 412.949 179H392.752ZM404.401 169.697H409.849C411.804 169.697 413.271 169.334 414.248 168.608C415.226 167.868 415.715 166.778 415.715 165.339C415.715 164.334 415.485 163.482 415.024 162.783C414.563 162.085 413.906 161.554 413.054 161.191C412.216 160.828 411.203 160.646 410.016 160.646H404.401V169.697ZM404.401 153.439H409.178C410.198 153.439 411.099 153.278 411.881 152.957C412.663 152.636 413.271 152.175 413.704 151.574C414.151 150.96 414.374 150.212 414.374 149.332C414.374 148.005 413.899 146.993 412.949 146.294C412 145.582 410.798 145.226 409.346 145.226H404.401V153.439ZM438.615 179.67C436.995 179.67 435.605 179.105 434.446 177.973C433.3 176.828 432.735 175.438 432.749 173.804C432.735 172.212 433.3 170.85 434.446 169.718C435.605 168.587 436.995 168.021 438.615 168.021C440.152 168.021 441.507 168.587 442.68 169.718C443.867 170.85 444.468 172.212 444.482 173.804C444.468 174.893 444.181 175.885 443.623 176.779C443.078 177.659 442.366 178.364 441.486 178.895C440.606 179.412 439.649 179.67 438.615 179.67ZM215.299 216.477V207.091H252.593V216.477H239.687V250H228.205V216.477H215.299ZM268.626 207.091V250H256.977V207.091H268.626ZM272.974 216.477V207.091H310.268V216.477H297.361V250H285.88V216.477H272.974ZM314.652 250V207.091H333.173C336.358 207.091 339.144 207.671 341.533 208.83C343.921 209.989 345.779 211.658 347.106 213.837C348.433 216.016 349.096 218.628 349.096 221.673C349.096 224.746 348.412 227.337 347.043 229.446C345.688 231.556 343.782 233.148 341.323 234.223C338.879 235.299 336.023 235.837 332.754 235.837H321.692V226.786H330.408C331.776 226.786 332.943 226.618 333.906 226.283C334.884 225.933 335.631 225.382 336.148 224.627C336.679 223.873 336.944 222.888 336.944 221.673C336.944 220.444 336.679 219.445 336.148 218.677C335.631 217.895 334.884 217.322 333.906 216.959C332.943 216.582 331.776 216.393 330.408 216.393H326.301V250H314.652ZM339.794 230.305L350.521 250H337.866L327.39 230.305H339.794ZM354.062 250V207.091H384.987V216.477H365.711V223.852H383.394V233.239H365.711V240.614H384.903V250H354.062ZM413.895 220.5C413.783 219.103 413.259 218.014 412.323 217.232C411.402 216.449 409.998 216.058 408.112 216.058C406.911 216.058 405.926 216.205 405.158 216.498C404.404 216.778 403.845 217.162 403.482 217.651C403.119 218.139 402.93 218.698 402.916 219.327C402.888 219.844 402.979 220.311 403.189 220.73C403.412 221.136 403.761 221.506 404.236 221.841C404.711 222.162 405.319 222.455 406.059 222.721C406.799 222.986 407.679 223.224 408.699 223.433L412.219 224.188C414.593 224.69 416.626 225.354 418.316 226.178C420.006 227.002 421.389 227.973 422.464 229.09C423.54 230.194 424.329 231.437 424.832 232.82C425.348 234.202 425.614 235.711 425.628 237.345C425.614 240.167 424.908 242.555 423.512 244.511C422.115 246.466 420.117 247.954 417.519 248.973C414.935 249.993 411.828 250.503 408.196 250.503C404.467 250.503 401.212 249.951 398.432 248.848C395.667 247.744 393.516 246.047 391.979 243.756C390.457 241.452 389.689 238.504 389.675 234.915H400.737C400.807 236.228 401.135 237.331 401.722 238.225C402.309 239.119 403.133 239.797 404.194 240.257C405.27 240.718 406.548 240.949 408.028 240.949C409.271 240.949 410.312 240.795 411.15 240.488C411.988 240.181 412.624 239.755 413.057 239.21C413.49 238.665 413.713 238.044 413.727 237.345C413.713 236.689 413.497 236.116 413.078 235.627C412.673 235.124 412.002 234.677 411.066 234.286C410.131 233.881 408.866 233.504 407.274 233.155L403 232.233C399.201 231.409 396.205 230.033 394.012 228.105C391.833 226.164 390.75 223.517 390.764 220.165C390.75 217.441 391.477 215.06 392.943 213.02C394.424 210.967 396.47 209.368 399.082 208.222C401.708 207.077 404.718 206.504 408.112 206.504C411.576 206.504 414.572 207.084 417.1 208.243C419.629 209.403 421.577 211.037 422.946 213.146C424.329 215.241 425.027 217.692 425.041 220.5H413.895Z" fill="#174B6F"/>
<path d="M285.675 59.5C285.525 57.6297 284.824 56.1709 283.571 55.1236C282.336 54.0762 280.457 53.5526 277.932 53.5526C276.323 53.5526 275.005 53.7489 273.976 54.1417C272.966 54.5157 272.218 55.0301 271.732 55.6847C271.246 56.3392 270.993 57.0874 270.974 57.929C270.937 58.621 271.059 59.2475 271.339 59.8086C271.638 60.351 272.106 60.8466 272.742 61.2955C273.378 61.7256 274.191 62.1184 275.183 62.4737C276.174 62.8291 277.352 63.147 278.717 63.4276L283.43 64.4375C286.61 65.1108 289.331 65.9992 291.594 67.1026C293.857 68.2061 295.709 69.5059 297.149 71.0021C298.589 72.4796 299.646 74.1442 300.319 75.9957C301.011 77.8473 301.366 79.8672 301.385 82.0554C301.366 85.8333 300.422 89.0315 298.551 91.6499C296.681 94.2682 294.007 96.2601 290.528 97.6254C287.068 98.9906 282.907 99.6733 278.044 99.6733C273.05 99.6733 268.693 98.9345 264.971 97.457C261.268 95.9795 258.388 93.7071 256.33 90.6399C254.292 87.554 253.263 83.6077 253.244 78.8011H268.057C268.15 80.5592 268.59 82.0367 269.375 83.2337C270.161 84.4306 271.264 85.3377 272.686 85.9549C274.126 86.5721 275.837 86.8807 277.82 86.8807C279.484 86.8807 280.877 86.675 282 86.2635C283.122 85.852 283.973 85.2816 284.553 84.5522C285.132 83.8228 285.432 82.9905 285.45 82.0554C285.432 81.1764 285.142 80.4096 284.581 79.755C284.038 79.0817 283.141 78.4832 281.887 77.9595C280.634 77.4171 278.942 76.9122 276.81 76.4446L271.087 75.2102C266 74.1068 261.988 72.2646 259.051 69.6836C256.134 67.0839 254.684 63.5398 254.703 59.0511C254.684 55.4041 255.657 52.2153 257.621 49.4847C259.603 46.7354 262.343 44.594 265.841 43.0604C269.357 41.5267 273.387 40.7599 277.932 40.7599C282.57 40.7599 286.582 41.5361 289.967 43.0884C293.352 44.6407 295.961 46.829 297.794 49.6531C299.646 52.4585 300.581 55.7408 300.599 59.5H285.675ZM305.747 54.1136V41.5455H355.683V54.1136H338.402V99H323.029V54.1136H305.747ZM369.226 99H352.394L371.359 41.5455H392.68L411.644 99H394.812L382.244 57.3679H381.795L369.226 99ZM366.084 76.3324H397.729V88.0028H366.084V76.3324ZM466.889 41.5455V99H453.872L433.112 68.8139H432.776V99H417.178V41.5455H430.419L450.843 71.6193H451.291V41.5455H466.889Z" fill="white"/>
<rect width="341" height="127" transform="translate(107 282)" fill="#9A9A9A"/>
<rect x="184" y="307" width="67" height="76" fill="#3F3F3F"/>
<rect x="336" y="307" width="67" height="76" fill="#3F3F3F"/>
<rect width="143" height="209" transform="translate(26 92)" fill="#9A9A9A"/>
<rect x="43" y="112" width="108" height="42" fill="#3F3F3F"/>
<rect x="43" y="154" width="108" height="128" fill="#3F3F3F"/>
<rect x="169" y="433" width="167" height="48" fill="#9A9A9A"/>
</svg>
