<svg width="1680" height="1026" viewBox="0 0 1680 1026" fill="none" xmlns="http://www.w3.org/2000/svg">
<rect width="1680" height="1026" fill="#282828"/>
<rect width="1449" height="806" transform="translate(115 110)" fill="#D7F9FF"/>
<path d="M367 218.859C366.453 216.958 365.685 215.279 364.695 213.82C363.706 212.336 362.495 211.086 361.063 210.07C359.656 209.029 358.042 208.234 356.219 207.688C354.422 207.141 352.43 206.867 350.242 206.867C346.154 206.867 342.56 207.883 339.461 209.914C336.388 211.945 333.992 214.901 332.273 218.781C330.555 222.635 329.695 227.349 329.695 232.922C329.695 238.495 330.542 243.234 332.234 247.141C333.927 251.047 336.323 254.029 339.422 256.086C342.521 258.117 346.18 259.133 350.398 259.133C354.227 259.133 357.495 258.456 360.203 257.102C362.938 255.721 365.021 253.781 366.453 251.281C367.911 248.781 368.641 245.826 368.641 242.414L372.078 242.922H351.453V230.187H384.93V240.266C384.93 247.297 383.445 253.339 380.477 258.391C377.508 263.417 373.419 267.297 368.211 270.031C363.003 272.74 357.039 274.094 350.32 274.094C342.82 274.094 336.232 272.44 330.555 269.133C324.878 265.799 320.451 261.073 317.273 254.953C314.122 248.807 312.547 241.516 312.547 233.078C312.547 226.594 313.484 220.812 315.359 215.734C317.26 210.63 319.917 206.307 323.328 202.766C326.74 199.224 330.711 196.529 335.242 194.68C339.773 192.831 344.682 191.906 349.969 191.906C354.5 191.906 358.719 192.57 362.625 193.898C366.531 195.201 369.995 197.049 373.016 199.445C376.063 201.841 378.549 204.693 380.477 208C382.404 211.281 383.641 214.901 384.188 218.859H367ZM408.953 273H390.828L418.445 193H440.242L467.82 273H449.695L429.656 211.281H429.031L408.953 273ZM407.82 241.555H450.633V254.758H407.82V241.555ZM477.449 273V193H509.012C515.053 193 520.21 194.081 524.48 196.242C528.777 198.378 532.046 201.411 534.285 205.344C536.551 209.25 537.684 213.846 537.684 219.133C537.684 224.445 536.538 229.016 534.246 232.844C531.954 236.646 528.634 239.562 524.285 241.594C519.962 243.625 514.728 244.641 508.582 244.641H487.449V231.047H505.848C509.077 231.047 511.759 230.604 513.895 229.719C516.03 228.833 517.618 227.505 518.66 225.734C519.728 223.964 520.262 221.763 520.262 219.133C520.262 216.477 519.728 214.237 518.66 212.414C517.618 210.591 516.017 209.211 513.855 208.273C511.72 207.31 509.025 206.828 505.77 206.828H494.363V273H477.449ZM520.652 236.594L540.535 273H521.863L502.41 236.594H520.652ZM549.637 273V193H603.543V206.945H566.551V226.008H600.77V239.953H566.551V259.055H603.699V273H549.637ZM679.52 226.398V239.602H643.035V226.398H679.52ZM762.869 216.008C762.557 212.857 761.215 210.409 758.846 208.664C756.476 206.919 753.26 206.047 749.197 206.047C746.437 206.047 744.106 206.437 742.205 207.219C740.304 207.974 738.846 209.029 737.83 210.383C736.84 211.737 736.346 213.273 736.346 214.992C736.294 216.424 736.593 217.674 737.244 218.742C737.921 219.81 738.846 220.734 740.018 221.516C741.189 222.271 742.544 222.935 744.08 223.508C745.617 224.055 747.257 224.523 749.002 224.914L756.189 226.633C759.679 227.414 762.882 228.456 765.799 229.758C768.715 231.06 771.242 232.661 773.377 234.562C775.512 236.464 777.166 238.703 778.338 241.281C779.536 243.859 780.148 246.815 780.174 250.148C780.148 255.044 778.898 259.289 776.424 262.883C773.976 266.451 770.434 269.224 765.799 271.203C761.189 273.156 755.63 274.133 749.119 274.133C742.661 274.133 737.036 273.143 732.244 271.164C727.479 269.185 723.755 266.255 721.072 262.375C718.416 258.469 717.023 253.638 716.893 247.883H733.26C733.442 250.565 734.21 252.805 735.564 254.602C736.945 256.372 738.781 257.714 741.072 258.625C743.39 259.51 746.007 259.953 748.924 259.953C751.788 259.953 754.275 259.536 756.385 258.703C758.52 257.87 760.174 256.711 761.346 255.227C762.518 253.742 763.104 252.036 763.104 250.109C763.104 248.312 762.57 246.802 761.502 245.578C760.46 244.354 758.924 243.312 756.893 242.453C754.887 241.594 752.426 240.812 749.51 240.109L740.799 237.922C734.054 236.281 728.729 233.716 724.822 230.227C720.916 226.737 718.976 222.036 719.002 216.125C718.976 211.281 720.265 207.049 722.869 203.43C725.499 199.81 729.106 196.984 733.689 194.953C738.273 192.922 743.481 191.906 749.314 191.906C755.252 191.906 760.434 192.922 764.861 194.953C769.314 196.984 772.778 199.81 775.252 203.43C777.726 207.049 779.002 211.242 779.08 216.008H762.869ZM803.514 273H785.389L813.006 193H834.803L862.381 273H844.256L824.217 211.281H823.592L803.514 273ZM802.381 241.555H845.193V254.758H802.381V241.555ZM888.924 193V273H872.01V193H888.924ZM969.754 193V273H955.145L920.34 222.648H919.754V273H902.84V193H917.684L952.215 243.312H952.918V193H969.754ZM980.682 206.945V193H1046.38V206.945H1021.89V273H1005.17V206.945H980.682ZM1082.66 273V193H1099.58V259.055H1133.88V273H1082.66ZM1145.08 273V193H1198.98V206.945H1161.99V226.008H1196.21V239.953H1161.99V259.055H1199.14V273H1145.08ZM1285.95 233C1285.95 241.724 1284.29 249.146 1280.98 255.266C1277.7 261.385 1273.22 266.06 1267.55 269.289C1261.9 272.492 1255.54 274.094 1248.48 274.094C1241.38 274.094 1234.99 272.479 1229.34 269.25C1223.69 266.021 1219.23 261.346 1215.95 255.227C1212.66 249.107 1211.02 241.698 1211.02 233C1211.02 224.276 1212.66 216.854 1215.95 210.734C1219.23 204.615 1223.69 199.953 1229.34 196.75C1234.99 193.521 1241.38 191.906 1248.48 191.906C1255.54 191.906 1261.9 193.521 1267.55 196.75C1273.22 199.953 1277.7 204.615 1280.98 210.734C1284.29 216.854 1285.95 224.276 1285.95 233ZM1268.8 233C1268.8 227.349 1267.95 222.583 1266.26 218.703C1264.59 214.823 1262.23 211.88 1259.19 209.875C1256.14 207.87 1252.57 206.867 1248.48 206.867C1244.4 206.867 1240.83 207.87 1237.78 209.875C1234.73 211.88 1232.36 214.823 1230.67 218.703C1229.01 222.583 1228.17 227.349 1228.17 233C1228.17 238.651 1229.01 243.417 1230.67 247.297C1232.36 251.177 1234.73 254.12 1237.78 256.125C1240.83 258.13 1244.4 259.133 1248.48 259.133C1252.57 259.133 1256.14 258.13 1259.19 256.125C1262.23 254.12 1264.59 251.177 1266.26 247.297C1267.95 243.417 1268.8 238.651 1268.8 233ZM1365.39 193V273H1350.78L1315.97 222.648H1315.39V273H1298.47V193H1313.32L1347.85 243.312H1348.55V193H1365.39Z" fill="black"/>
<path d="M370.676 560.364L381.223 593.517H381.628L392.196 560.364H402.423L387.381 604H375.491L360.428 560.364H370.676ZM409.396 604H399.51L414.574 560.364H426.463L441.505 604H431.619L420.689 570.335H420.348L409.396 604ZM408.778 586.848H432.13V594.05H408.778V586.848ZM483.256 560.364V604H475.287L456.303 576.536H455.983V604H446.757V560.364H454.854L473.689 587.807H474.073V560.364H483.256ZM506.347 604H490.879V560.364H506.475C510.864 560.364 514.643 561.237 517.81 562.984C520.978 564.717 523.414 567.21 525.119 570.463C526.837 573.716 527.697 577.608 527.697 582.139C527.697 586.685 526.837 590.591 525.119 593.858C523.414 597.125 520.964 599.632 517.768 601.379C514.586 603.126 510.779 604 506.347 604ZM500.104 596.095H505.964C508.691 596.095 510.985 595.612 512.846 594.646C514.721 593.666 516.127 592.153 517.065 590.108C518.016 588.048 518.492 585.392 518.492 582.139C518.492 578.915 518.016 576.28 517.065 574.234C516.127 572.189 514.728 570.683 512.867 569.717C511.006 568.751 508.712 568.268 505.985 568.268H500.104V596.095ZM574.63 582.182C574.63 586.94 573.728 590.989 571.924 594.327C570.135 597.665 567.691 600.214 564.595 601.976C561.512 603.723 558.047 604.597 554.197 604.597C550.319 604.597 546.839 603.716 543.757 601.955C540.674 600.193 538.238 597.643 536.449 594.305C534.659 590.967 533.764 586.926 533.764 582.182C533.764 577.423 534.659 573.375 536.449 570.037C538.238 566.699 540.674 564.156 543.757 562.409C546.839 560.648 550.319 559.767 554.197 559.767C558.047 559.767 561.512 560.648 564.595 562.409C567.691 564.156 570.135 566.699 571.924 570.037C573.728 573.375 574.63 577.423 574.63 582.182ZM565.277 582.182C565.277 579.099 564.815 576.5 563.892 574.384C562.983 572.267 561.697 570.662 560.035 569.568C558.373 568.474 556.427 567.928 554.197 567.928C551.967 567.928 550.021 568.474 548.359 569.568C546.697 570.662 545.404 572.267 544.481 574.384C543.572 576.5 543.118 579.099 543.118 582.182C543.118 585.264 543.572 587.864 544.481 589.98C545.404 592.097 546.697 593.702 548.359 594.795C550.021 595.889 551.967 596.436 554.197 596.436C556.427 596.436 558.373 595.889 560.035 594.795C561.697 593.702 562.983 592.097 563.892 589.98C564.815 587.864 565.277 585.264 565.277 582.182ZM581.464 604V560.364H610.868V567.97H590.69V578.368H609.355V585.974H590.69V596.393H610.953V604H581.464ZM645.156 560.364H654.382V588.702C654.382 591.884 653.622 594.668 652.102 597.054C650.596 599.44 648.487 601.301 645.774 602.636C643.061 603.957 639.9 604.618 636.292 604.618C632.67 604.618 629.502 603.957 626.789 602.636C624.076 601.301 621.967 599.44 620.461 597.054C618.956 594.668 618.203 591.884 618.203 588.702V560.364H627.429V587.913C627.429 589.575 627.791 591.053 628.515 592.345C629.254 593.638 630.291 594.653 631.626 595.392C632.961 596.131 634.517 596.5 636.292 596.5C638.082 596.5 639.637 596.131 640.958 595.392C642.294 594.653 643.324 593.638 644.048 592.345C644.787 591.053 645.156 589.575 645.156 587.913V560.364ZM669.856 560.364L680.403 593.517H680.808L691.376 560.364H701.603L686.56 604H674.671L659.607 560.364H669.856ZM706.855 604V560.364H724.071C727.366 560.364 730.179 560.953 732.509 562.132C734.852 563.297 736.635 564.952 737.857 567.097C739.092 569.227 739.71 571.734 739.71 574.618C739.71 577.516 739.085 580.009 737.835 582.097C736.585 584.17 734.774 585.761 732.402 586.869C730.044 587.977 727.189 588.531 723.837 588.531H712.31V581.116H722.345C724.107 581.116 725.57 580.875 726.734 580.392C727.899 579.909 728.766 579.185 729.334 578.219C729.916 577.253 730.207 576.053 730.207 574.618C730.207 573.169 729.916 571.947 729.334 570.953C728.766 569.959 727.892 569.206 726.713 568.695C725.548 568.169 724.078 567.906 722.303 567.906H716.081V604H706.855ZM730.42 584.142L741.266 604H731.081L720.47 584.142H730.42ZM746.23 604V560.364H775.634V567.97H755.456V578.368H774.121V585.974H755.456V596.393H775.719V604H746.23Z" fill="black"/>
<path d="M1340.47 604.597C1337.46 604.597 1334.78 604.043 1332.42 602.935C1330.08 601.827 1328.22 600.3 1326.84 598.354C1325.46 596.408 1324.74 594.178 1324.69 591.663H1333.63C1333.73 593.354 1334.44 594.724 1335.77 595.776C1337.09 596.827 1338.66 597.352 1340.47 597.352C1341.92 597.352 1343.2 597.033 1344.31 596.393C1345.43 595.74 1346.31 594.838 1346.93 593.688C1347.57 592.523 1347.89 591.187 1347.89 589.682C1347.89 588.148 1347.56 586.798 1346.91 585.634C1346.27 584.469 1345.38 583.56 1344.25 582.906C1343.11 582.253 1341.81 581.919 1340.35 581.905C1339.07 581.905 1337.83 582.168 1336.62 582.693C1335.42 583.219 1334.49 583.936 1333.83 584.845L1325.62 583.375L1327.69 560.364H1354.37V567.906H1335.3L1334.17 578.837H1334.42C1335.19 577.757 1336.35 576.862 1337.9 576.152C1339.44 575.442 1341.18 575.087 1343.1 575.087C1345.72 575.087 1348.07 575.705 1350.13 576.94C1352.19 578.176 1353.81 579.874 1355.01 582.033C1356.2 584.178 1356.79 586.649 1356.77 589.447C1356.79 592.388 1356.11 595.001 1354.73 597.288C1353.37 599.561 1351.45 601.351 1349 602.658C1346.55 603.95 1343.71 604.597 1340.47 604.597ZM1377.18 604V571.273H1385.83V577.047H1386.21C1386.9 575.129 1388.03 573.616 1389.62 572.509C1391.21 571.401 1393.12 570.847 1395.33 570.847C1397.58 570.847 1399.49 571.408 1401.07 572.53C1402.64 573.638 1403.69 575.143 1404.22 577.047H1404.56C1405.23 575.172 1406.44 573.673 1408.18 572.551C1409.94 571.415 1412.02 570.847 1414.43 570.847C1417.48 570.847 1419.96 571.82 1421.86 573.766C1423.78 575.697 1424.74 578.439 1424.74 581.99V604H1415.68V583.78C1415.68 581.962 1415.2 580.598 1414.23 579.689C1413.27 578.78 1412.06 578.325 1410.61 578.325C1408.96 578.325 1407.68 578.851 1406.75 579.902C1405.83 580.939 1405.37 582.31 1405.37 584.014V604H1396.57V583.588C1396.57 581.983 1396.11 580.705 1395.19 579.753C1394.28 578.801 1393.08 578.325 1391.58 578.325C1390.58 578.325 1389.67 578.581 1388.86 579.092C1388.06 579.589 1387.43 580.293 1386.96 581.202C1386.49 582.097 1386.26 583.148 1386.26 584.355V604H1377.18ZM1431.91 604V571.273H1440.98V604H1431.91ZM1436.47 567.054C1435.12 567.054 1433.96 566.607 1432.99 565.712C1432.04 564.803 1431.57 563.716 1431.57 562.452C1431.57 561.202 1432.04 560.129 1432.99 559.234C1433.96 558.325 1435.12 557.871 1436.47 557.871C1437.82 557.871 1438.97 558.325 1439.92 559.234C1440.88 560.129 1441.37 561.202 1441.37 562.452C1441.37 563.716 1440.88 564.803 1439.92 565.712C1438.97 566.607 1437.82 567.054 1436.47 567.054ZM1457.33 585.08V604H1448.25V571.273H1456.91V577.047H1457.29C1458.01 575.143 1459.23 573.638 1460.93 572.53C1462.64 571.408 1464.7 570.847 1467.13 570.847C1469.41 570.847 1471.39 571.344 1473.08 572.338C1474.77 573.332 1476.08 574.753 1477.02 576.599C1477.96 578.432 1478.43 580.619 1478.43 583.162V604H1469.35V584.781C1469.36 582.778 1468.85 581.216 1467.81 580.094C1466.78 578.957 1465.35 578.389 1463.53 578.389C1462.31 578.389 1461.23 578.652 1460.29 579.178C1459.37 579.703 1458.65 580.47 1458.12 581.479C1457.61 582.473 1457.35 583.673 1457.33 585.08Z" fill="black"/>
<path d="M1044.47 604.597C1041.46 604.597 1038.78 604.043 1036.42 602.935C1034.08 601.827 1032.22 600.3 1030.84 598.354C1029.46 596.408 1028.74 594.178 1028.69 591.663H1037.63C1037.73 593.354 1038.44 594.724 1039.77 595.776C1041.09 596.827 1042.66 597.352 1044.47 597.352C1045.92 597.352 1047.2 597.033 1048.31 596.393C1049.43 595.74 1050.31 594.838 1050.93 593.688C1051.57 592.523 1051.89 591.187 1051.89 589.682C1051.89 588.148 1051.56 586.798 1050.91 585.634C1050.27 584.469 1049.38 583.56 1048.25 582.906C1047.11 582.253 1045.81 581.919 1044.35 581.905C1043.07 581.905 1041.83 582.168 1040.62 582.693C1039.42 583.219 1038.49 583.936 1037.83 584.845L1029.62 583.375L1031.69 560.364H1058.37V567.906H1039.3L1038.17 578.837H1038.42C1039.19 577.757 1040.35 576.862 1041.9 576.152C1043.44 575.442 1045.18 575.087 1047.1 575.087C1049.72 575.087 1052.07 575.705 1054.13 576.94C1056.19 578.176 1057.81 579.874 1059.01 582.033C1060.2 584.178 1060.79 586.649 1060.77 589.447C1060.79 592.388 1060.11 595.001 1058.73 597.288C1057.37 599.561 1055.45 601.351 1053 602.658C1050.55 603.95 1047.71 604.597 1044.47 604.597ZM1081.18 604V571.273H1089.83V577.047H1090.21C1090.9 575.129 1092.03 573.616 1093.62 572.509C1095.21 571.401 1097.12 570.847 1099.33 570.847C1101.58 570.847 1103.49 571.408 1105.07 572.53C1106.64 573.638 1107.69 575.143 1108.22 577.047H1108.56C1109.23 575.172 1110.44 573.673 1112.18 572.551C1113.94 571.415 1116.02 570.847 1118.43 570.847C1121.48 570.847 1123.96 571.82 1125.86 573.766C1127.78 575.697 1128.74 578.439 1128.74 581.99V604H1119.68V583.78C1119.68 581.962 1119.2 580.598 1118.23 579.689C1117.27 578.78 1116.06 578.325 1114.61 578.325C1112.96 578.325 1111.68 578.851 1110.75 579.902C1109.83 580.939 1109.37 582.31 1109.37 584.014V604H1100.57V583.588C1100.57 581.983 1100.11 580.705 1099.19 579.753C1098.28 578.801 1097.08 578.325 1095.58 578.325C1094.58 578.325 1093.67 578.581 1092.86 579.092C1092.06 579.589 1091.43 580.293 1090.96 581.202C1090.49 582.097 1090.26 583.148 1090.26 584.355V604H1081.18ZM1135.91 604V571.273H1144.98V604H1135.91ZM1140.47 567.054C1139.12 567.054 1137.96 566.607 1136.99 565.712C1136.04 564.803 1135.57 563.716 1135.57 562.452C1135.57 561.202 1136.04 560.129 1136.99 559.234C1137.96 558.325 1139.12 557.871 1140.47 557.871C1141.82 557.871 1142.97 558.325 1143.92 559.234C1144.88 560.129 1145.37 561.202 1145.37 562.452C1145.37 563.716 1144.88 564.803 1143.92 565.712C1142.97 566.607 1141.82 567.054 1140.47 567.054ZM1161.33 585.08V604H1152.25V571.273H1160.91V577.047H1161.29C1162.01 575.143 1163.23 573.638 1164.93 572.53C1166.64 571.408 1168.7 570.847 1171.13 570.847C1173.41 570.847 1175.39 571.344 1177.08 572.338C1178.77 573.332 1180.08 574.753 1181.02 576.599C1181.96 578.432 1182.43 580.619 1182.43 583.162V604H1173.35V584.781C1173.36 582.778 1172.85 581.216 1171.81 580.094C1170.78 578.957 1169.35 578.389 1167.53 578.389C1166.31 578.389 1165.23 578.652 1164.29 579.178C1163.37 579.703 1162.65 580.47 1162.12 581.479C1161.61 582.473 1161.35 583.673 1161.33 585.08Z" fill="black"/>
<path d="M1044.47 754.597C1041.46 754.597 1038.78 754.043 1036.42 752.935C1034.08 751.827 1032.22 750.3 1030.84 748.354C1029.46 746.408 1028.74 744.178 1028.69 741.663H1037.63C1037.73 743.354 1038.44 744.724 1039.77 745.776C1041.09 746.827 1042.66 747.352 1044.47 747.352C1045.92 747.352 1047.2 747.033 1048.31 746.393C1049.43 745.74 1050.31 744.838 1050.93 743.688C1051.57 742.523 1051.89 741.187 1051.89 739.682C1051.89 738.148 1051.56 736.798 1050.91 735.634C1050.27 734.469 1049.38 733.56 1048.25 732.906C1047.11 732.253 1045.81 731.919 1044.35 731.905C1043.07 731.905 1041.83 732.168 1040.62 732.693C1039.42 733.219 1038.49 733.936 1037.83 734.845L1029.62 733.375L1031.69 710.364H1058.37V717.906H1039.3L1038.17 728.837H1038.42C1039.19 727.757 1040.35 726.862 1041.9 726.152C1043.44 725.442 1045.18 725.087 1047.1 725.087C1049.72 725.087 1052.07 725.705 1054.13 726.94C1056.19 728.176 1057.81 729.874 1059.01 732.033C1060.2 734.178 1060.79 736.649 1060.77 739.447C1060.79 742.388 1060.11 745.001 1058.73 747.288C1057.37 749.561 1055.45 751.351 1053 752.658C1050.55 753.95 1047.71 754.597 1044.47 754.597ZM1081.18 754V721.273H1089.83V727.047H1090.21C1090.9 725.129 1092.03 723.616 1093.62 722.509C1095.21 721.401 1097.12 720.847 1099.33 720.847C1101.58 720.847 1103.49 721.408 1105.07 722.53C1106.64 723.638 1107.69 725.143 1108.22 727.047H1108.56C1109.23 725.172 1110.44 723.673 1112.18 722.551C1113.94 721.415 1116.02 720.847 1118.43 720.847C1121.48 720.847 1123.96 721.82 1125.86 723.766C1127.78 725.697 1128.74 728.439 1128.74 731.99V754H1119.68V733.78C1119.68 731.962 1119.2 730.598 1118.23 729.689C1117.27 728.78 1116.06 728.325 1114.61 728.325C1112.96 728.325 1111.68 728.851 1110.75 729.902C1109.83 730.939 1109.37 732.31 1109.37 734.014V754H1100.57V733.588C1100.57 731.983 1100.11 730.705 1099.19 729.753C1098.28 728.801 1097.08 728.325 1095.58 728.325C1094.58 728.325 1093.67 728.581 1092.86 729.092C1092.06 729.589 1091.43 730.293 1090.96 731.202C1090.49 732.097 1090.26 733.148 1090.26 734.355V754H1081.18ZM1135.91 754V721.273H1144.98V754H1135.91ZM1140.47 717.054C1139.12 717.054 1137.96 716.607 1136.99 715.712C1136.04 714.803 1135.57 713.716 1135.57 712.452C1135.57 711.202 1136.04 710.129 1136.99 709.234C1137.96 708.325 1139.12 707.871 1140.47 707.871C1141.82 707.871 1142.97 708.325 1143.92 709.234C1144.88 710.129 1145.37 711.202 1145.37 712.452C1145.37 713.716 1144.88 714.803 1143.92 715.712C1142.97 716.607 1141.82 717.054 1140.47 717.054ZM1161.33 735.08V754H1152.25V721.273H1160.91V727.047H1161.29C1162.01 725.143 1163.23 723.638 1164.93 722.53C1166.64 721.408 1168.7 720.847 1171.13 720.847C1173.41 720.847 1175.39 721.344 1177.08 722.338C1178.77 723.332 1180.08 724.753 1181.02 726.599C1181.96 728.432 1182.43 730.619 1182.43 733.162V754H1173.35V734.781C1173.36 732.778 1172.85 731.216 1171.81 730.094C1170.78 728.957 1169.35 728.389 1167.53 728.389C1166.31 728.389 1165.23 728.652 1164.29 729.178C1163.37 729.703 1162.65 730.47 1162.12 731.479C1161.61 732.473 1161.35 733.673 1161.33 735.08Z" fill="black"/>
<path d="M1340.47 754.597C1337.46 754.597 1334.78 754.043 1332.42 752.935C1330.08 751.827 1328.22 750.3 1326.84 748.354C1325.46 746.408 1324.74 744.178 1324.69 741.663H1333.63C1333.73 743.354 1334.44 744.724 1335.77 745.776C1337.09 746.827 1338.66 747.352 1340.47 747.352C1341.92 747.352 1343.2 747.033 1344.31 746.393C1345.43 745.74 1346.31 744.838 1346.93 743.688C1347.57 742.523 1347.89 741.187 1347.89 739.682C1347.89 738.148 1347.56 736.798 1346.91 735.634C1346.27 734.469 1345.38 733.56 1344.25 732.906C1343.11 732.253 1341.81 731.919 1340.35 731.905C1339.07 731.905 1337.83 732.168 1336.62 732.693C1335.42 733.219 1334.49 733.936 1333.83 734.845L1325.62 733.375L1327.69 710.364H1354.37V717.906H1335.3L1334.17 728.837H1334.42C1335.19 727.757 1336.35 726.862 1337.9 726.152C1339.44 725.442 1341.18 725.087 1343.1 725.087C1345.72 725.087 1348.07 725.705 1350.13 726.94C1352.19 728.176 1353.81 729.874 1355.01 732.033C1356.2 734.178 1356.79 736.649 1356.77 739.447C1356.79 742.388 1356.11 745.001 1354.73 747.288C1353.37 749.561 1351.45 751.351 1349 752.658C1346.55 753.95 1343.71 754.597 1340.47 754.597ZM1377.18 754V721.273H1385.83V727.047H1386.21C1386.9 725.129 1388.03 723.616 1389.62 722.509C1391.21 721.401 1393.12 720.847 1395.33 720.847C1397.58 720.847 1399.49 721.408 1401.07 722.53C1402.64 723.638 1403.69 725.143 1404.22 727.047H1404.56C1405.23 725.172 1406.44 723.673 1408.18 722.551C1409.94 721.415 1412.02 720.847 1414.43 720.847C1417.48 720.847 1419.96 721.82 1421.86 723.766C1423.78 725.697 1424.74 728.439 1424.74 731.99V754H1415.68V733.78C1415.68 731.962 1415.2 730.598 1414.23 729.689C1413.27 728.78 1412.06 728.325 1410.61 728.325C1408.96 728.325 1407.68 728.851 1406.75 729.902C1405.83 730.939 1405.37 732.31 1405.37 734.014V754H1396.57V733.588C1396.57 731.983 1396.11 730.705 1395.19 729.753C1394.28 728.801 1393.08 728.325 1391.58 728.325C1390.58 728.325 1389.67 728.581 1388.86 729.092C1388.06 729.589 1387.43 730.293 1386.96 731.202C1386.49 732.097 1386.26 733.148 1386.26 734.355V754H1377.18ZM1431.91 754V721.273H1440.98V754H1431.91ZM1436.47 717.054C1435.12 717.054 1433.96 716.607 1432.99 715.712C1432.04 714.803 1431.57 713.716 1431.57 712.452C1431.57 711.202 1432.04 710.129 1432.99 709.234C1433.96 708.325 1435.12 707.871 1436.47 707.871C1437.82 707.871 1438.97 708.325 1439.92 709.234C1440.88 710.129 1441.37 711.202 1441.37 712.452C1441.37 713.716 1440.88 714.803 1439.92 715.712C1438.97 716.607 1437.82 717.054 1436.47 717.054ZM1457.33 735.08V754H1448.25V721.273H1456.91V727.047H1457.29C1458.01 725.143 1459.23 723.638 1460.93 722.53C1462.64 721.408 1464.7 720.847 1467.13 720.847C1469.41 720.847 1471.39 721.344 1473.08 722.338C1474.77 723.332 1476.08 724.753 1477.02 726.599C1477.96 728.432 1478.43 730.619 1478.43 733.162V754H1469.35V734.781C1469.36 732.778 1468.85 731.216 1467.81 730.094C1466.78 728.957 1465.35 728.389 1463.53 728.389C1462.31 728.389 1461.23 728.652 1460.29 729.178C1459.37 729.703 1458.65 730.47 1458.12 731.479C1457.61 732.473 1457.35 733.673 1457.33 735.08Z" fill="black"/>
<path d="M362.793 754V710.364H392.196V717.97H372.018V728.368H390.683V735.974H372.018V746.393H392.281V754H362.793ZM423.203 722.913C423.032 721.195 422.301 719.859 421.008 718.908C419.716 717.956 417.961 717.48 415.745 717.48C414.24 717.48 412.968 717.693 411.931 718.119C410.895 718.531 410.099 719.107 409.545 719.845C409.005 720.584 408.735 721.422 408.735 722.359C408.707 723.141 408.87 723.822 409.225 724.405C409.595 724.987 410.099 725.491 410.738 725.918C411.377 726.33 412.116 726.692 412.954 727.004C413.792 727.303 414.687 727.558 415.639 727.771L419.559 728.709C421.463 729.135 423.21 729.703 424.801 730.413C426.392 731.124 427.77 731.997 428.934 733.034C430.099 734.071 431.001 735.293 431.64 736.699C432.294 738.105 432.627 739.717 432.642 741.536C432.627 744.206 431.946 746.521 430.596 748.482C429.261 750.428 427.329 751.94 424.801 753.02C422.287 754.085 419.254 754.618 415.703 754.618C412.18 754.618 409.112 754.078 406.498 752.999C403.899 751.919 401.868 750.321 400.404 748.205C398.956 746.074 398.196 743.439 398.125 740.3H407.052C407.152 741.763 407.571 742.984 408.309 743.964C409.062 744.93 410.064 745.662 411.314 746.159C412.578 746.642 414.005 746.884 415.596 746.884C417.159 746.884 418.515 746.656 419.666 746.202C420.831 745.747 421.733 745.115 422.372 744.305C423.011 743.496 423.331 742.565 423.331 741.514C423.331 740.534 423.039 739.71 422.457 739.043C421.889 738.375 421.051 737.807 419.943 737.338C418.849 736.869 417.507 736.443 415.916 736.06L411.164 734.866C407.485 733.972 404.581 732.572 402.45 730.669C400.319 728.766 399.261 726.202 399.275 722.977C399.261 720.335 399.964 718.027 401.385 716.053C402.819 714.078 404.787 712.537 407.287 711.429C409.787 710.321 412.627 709.767 415.809 709.767C419.048 709.767 421.875 710.321 424.289 711.429C426.718 712.537 428.608 714.078 429.957 716.053C431.306 718.027 432.002 720.314 432.045 722.913H423.203ZM462.519 722.913C462.349 721.195 461.617 719.859 460.325 718.908C459.032 717.956 457.278 717.48 455.062 717.48C453.556 717.48 452.285 717.693 451.248 718.119C450.211 718.531 449.415 719.107 448.862 719.845C448.322 720.584 448.052 721.422 448.052 722.359C448.023 723.141 448.187 723.822 448.542 724.405C448.911 724.987 449.415 725.491 450.055 725.918C450.694 726.33 451.433 726.692 452.271 727.004C453.109 727.303 454.004 727.558 454.955 727.771L458.876 728.709C460.779 729.135 462.526 729.703 464.117 730.413C465.708 731.124 467.086 731.997 468.251 733.034C469.415 734.071 470.317 735.293 470.957 736.699C471.61 738.105 471.944 739.717 471.958 741.536C471.944 744.206 471.262 746.521 469.913 748.482C468.577 750.428 466.646 751.94 464.117 753.02C461.603 754.085 458.57 754.618 455.019 754.618C451.496 754.618 448.428 754.078 445.815 752.999C443.215 751.919 441.184 750.321 439.721 748.205C438.272 746.074 437.512 743.439 437.441 740.3H446.369C446.468 741.763 446.887 742.984 447.626 743.964C448.379 744.93 449.38 745.662 450.63 746.159C451.894 746.642 453.322 746.884 454.913 746.884C456.475 746.884 457.832 746.656 458.982 746.202C460.147 745.747 461.049 745.115 461.688 744.305C462.327 743.496 462.647 742.565 462.647 741.514C462.647 740.534 462.356 739.71 461.773 739.043C461.205 738.375 460.367 737.807 459.259 737.338C458.165 736.869 456.823 736.443 455.232 736.06L450.481 734.866C446.802 733.972 443.897 732.572 441.766 730.669C439.636 728.766 438.577 726.202 438.592 722.977C438.577 720.335 439.281 718.027 440.701 716.053C442.136 714.078 444.103 712.537 446.603 711.429C449.103 710.321 451.944 709.767 455.126 709.767C458.364 709.767 461.191 710.321 463.606 711.429C466.035 712.537 467.924 714.078 469.273 716.053C470.623 718.027 471.319 720.314 471.362 722.913H462.519ZM478.164 754V710.364H507.567V717.97H487.39V728.368H506.054V735.974H487.39V746.393H507.652V754H478.164ZM512.345 710.364H522.679L532.629 729.156H533.055L543.006 710.364H553.339L537.423 738.574V754H528.261V738.574L512.345 710.364Z" fill="black"/>
<rect x="167" y="527" width="112" height="112" rx="24" fill="#FF5858"/>
<rect x="167" y="677" width="112" height="112" rx="24" fill="#FF5858"/>
<rect width="1449" height="148" transform="translate(115 333)" fill="#78E2F5"/>
</svg>
